<?xml version="1.0" encoding="utf-8"?>
<!-- Generator: Adobe Illustrator 19.1.0, SVG Export Plug-In . SVG Version: 6.00 Build 0)  -->
<svg version="1.1" id="Layer_1" xmlns="http://www.w3.org/2000/svg" xmlns:xlink="http://www.w3.org/1999/xlink" x="0px" y="0px"
	 viewBox="80 -36.2 459.3 372.2" style="enable-background:new 80 -36.2 459.3 372.2;" xml:space="preserve">
<style type="text/css">
	.st0{display:none;}
	.st1{display:inline;}
	.st2{fill:#37424A;}
</style>
<g id="bg" class="st0">
	<g id="uoBd4Z.tif" class="st1">
	</g>
</g>
<g id="original">
	<path class="st2" d="M286.7,147h-0.1l0,0C286.6,147.1,286.6,147,286.7,147z M286.7,147h-0.1l0,0C286.6,147.1,286.6,147,286.7,147z"
		/>
	<path class="st2" d="M80.6,172.9c1.9,30.7,59.7,35.4,77.4,36.1c9.7,0.4,30.8,2.5,49.6,5.5c-0.3,9.2-0.9,26.4-1.2,28.7
		c-0.3,2.5,0.5,6.9,2.7,11.5c-3.6,3.7-5.1,7.2-4.4,10.6c1.1,5.5,7.7,7.9,7.9,8l5.9,2.1l-3.6-5.1c-1.3-1.8-1.8-3.4-1.4-4.6
		c0.4-1.3,1.7-2.1,2.5-2.6c0.4,0.1,0.8,0,1.2-0.1c1.1-0.4,4-1.4,6.4-27l4.9-17.7c3.2,0.8,6.1,1.6,8.4,2.4c8.1,2.9,14.7,2.2,19.5,0.3
		c0.8,5.5,2,11,3.4,16.4c1.2,4.5,2.6,8.9,4.2,13.2c-1.3,0.7-2.8,1.4-4.2,2.1c-3,1.5-5.9,2.8-7.8,4.2c-9.5,6.5-9.7,13.9-9.2,16.7
		c0.2,1.4,0.6,2.7,1.2,3.8c-0.9,3.4-0.6,6.2,0.9,8.1c2.2,2.7,5.7,2.6,6.1,2.5l5.7-0.4l-4.8-3.2c-0.8-0.5-1.3-1.1-1.4-1.8
		c-0.1-0.6,0.1-1.3,0.3-1.9c8.6,0.1,12.6-10.1,14.1-13.8c0.8-1.9,2.1-4.5,3.2-6.7c1.6,3.3,3.3,6.4,5,9.2l0.1,0.1
		c-0.8,7.6,0.7,13.5,4.7,17.6c5.9,5.9,15,6,18.9,5.7l0.3,0.2c1.3,0.8,2.5,1.2,3.7,1.5c-0.8,1.4-1.8,3.1-3.1,5.1
		c-0.8,1.2-1.7,2.4-2.8,3.7c-0.5,0.6-1,1.3-1.6,1.9c-0.6,0.7-1.2,1.3-1.9,2c-2.6,2.8-5.2,5.8-7.6,9.1c-0.6,0.8-1.2,1.7-1.7,2.6
		c-0.6,0.9-1,1.9-1.4,2.7c-0.9,1.7-1.8,3.3-2.8,4.8c-2,3-4.4,5.4-6.8,6.8s-4.8,1.8-6.4,1.6c-0.8-0.1-1.5-0.2-1.9-0.3
		s-0.7-0.2-0.7-0.2l-0.4,1.2c0,0,0.2,0.1,0.7,0.2c0.5,0.2,1.2,0.3,2.1,0.5c1.8,0.3,4.6,0.1,7.4-1.4c2.8-1.4,5.5-4,7.8-7
		c1.2-1.5,2.2-3.2,3.3-4.9c0.5-0.9,0.9-1.7,1.5-2.4c0.5-0.7,1.1-1.5,1.7-2.2c2.4-3,5.2-5.8,7.8-8.2c0.7-0.6,1.3-1.2,2-1.8
		c0.7-0.6,1.3-1.3,1.9-1.9c1.2-1.3,2.3-2.6,3.2-3.8c1.9-2.4,3.3-4.6,4.2-6.1c0.2-0.3,0.3-0.6,0.5-0.9c0.8,0.1,1.6,0.2,2.6,0.2v0.1
		c0,0,1.1,0,1.5,0s0.5,0,1.5,0v-0.1c1,0,1.6-0.1,2.5-0.2c0.2,0.3,0.2,0.6,0.4,0.9c0.9,1.5,2.3,3.7,4.2,6.1c1,1.2,2,2.5,3.2,3.8
		c0.6,0.6,1.2,1.3,1.9,1.9c0.7,0.6,1.3,1.2,2,1.8c2.7,2.5,5.4,5.3,7.8,8.2c0.6,0.7,1.2,1.5,1.7,2.2s0.9,1.6,1.5,2.4
		c1,1.7,2.1,3.4,3.3,4.9c2.3,3,5,5.5,7.8,7c2.8,1.5,5.6,1.7,7.4,1.4c0.9-0.1,1.6-0.3,2.1-0.5c0.5-0.1,0.7-0.2,0.7-0.2l-0.4-1.2
		c0,0-0.2,0.1-0.7,0.2c-0.4,0.1-1.1,0.2-1.9,0.3c-1.6,0.1-4-0.2-6.4-1.6c-2.4-1.4-4.8-3.8-6.8-6.8c-1-1.5-1.9-3.1-2.8-4.8
		c-0.4-0.8-0.8-1.8-1.4-2.7c-0.5-0.9-1.1-1.7-1.7-2.6c-2.4-3.3-5-6.3-7.6-9.1c-0.6-0.7-1.3-1.3-1.9-2c-0.6-0.6-1.1-1.2-1.6-1.9
		c-1-1.2-1.9-2.5-2.7-3.7c-1.3-1.9-2.3-3.7-3.1-5.1c1.2-0.3,2.5-0.7,3.8-1.5l0.3-0.2c3.9,0.3,13,0.1,18.8-5.7c4-4.1,5.6-10,4.7-17.6
		l0.1-0.1c1.8-2.8,3.4-5.9,5-9.2c1.2,2.2,2.5,4.8,3.2,6.8c1.5,3.7,5.5,13.8,14.1,13.7c0.2,0.5,0.4,1.2,0.3,1.9
		c-0.1,0.7-0.6,1.3-1.4,1.8l-4.8,3.2l5.7,0.4c0.4,0,3.9,0.2,6.1-2.5c1.5-1.9,1.8-4.6,0.9-8.1c0.6-1.1,1-2.4,1.2-3.8
		c0.4-2.8,0.3-10.2-9.2-16.7c-1.9-1.3-4.8-2.7-7.8-4.2c-1.4-0.7-2.9-1.4-4.2-2.1c1.6-4.3,3.1-8.7,4.2-13.2
		c1.5-5.4,2.6-10.9,3.4-16.4c4.8,1.8,11.3,2.6,19.5-0.3c2.3-0.8,5.2-1.6,8.4-2.4l4.9,17.7c2.3,25.6,5.3,26.6,6.4,27
		c0.4,0.1,0.8,0.2,1.2,0.1c0.7,0.4,2.1,1.2,2.5,2.5c0.4,1.2-0.1,2.8-1.4,4.6l-3.6,5.1l5.9-2.1c0.3-0.1,6.8-2.5,7.9-8
		c0.7-3.3-0.8-6.9-4.4-10.6c2.2-4.6,3-9.1,2.7-11.5c-0.3-2.3-0.9-19.5-1.2-28.7c18.8-3,39.9-5.1,49.6-5.5
		c17.7-0.7,75.5-5.4,77.4-36.1c0.4-2.1,1.6-12.9-14.9-23.6c0.1-3.9-1.2-12.6-14.6-18.4c-0.2-0.1-9.3-3.5-13.3-8
		c-2.6-2.8-6.9-4.1-11.7-3.4c-1.2,0.2-2.2,0.4-3.3,0.8c0.2-0.8,0.5-1.7,0.7-2.5c2.1-7.8-0.6-12.5-3.3-15c-4.8-4.5-13.1-5.9-21.6-5.9
		c-11.1,0-22.5,2.5-26.8,3.9c-6.1,2.1-12.5,6.7-18.8,13.9c-5.3,0.8-28.6,6.1-40.2,35.4c-1.7,4.3-2.4,8.6-3.2,13.2
		c-0.1,0.9-0.3,1.8-0.5,2.7c-3.2-1-8.6-3-13.4-5.9c-0.1-0.2-0.2-0.4-0.3-0.6c-3.7-5.9-8.2-10.7-13.7-14.3
		c11.4-4.9,42.9-18.8,53.2-27.4c3.7-3.1,5.3-5.6,5-8.1c0-0.2-0.1-0.4-0.2-0.6c2.8-6.9,23.6-59.4,18.7-85.9v-0.3l-0.1-0.3
		c-0.7-1.4-18.1-35.3-27.6-42.9l-6.2-5l22.3,49.3c-3.9,9.4-25.4,62.3-22.1,76c-2.3,1.7-8.4,5.4-17,4.9c1.5-3.9,2.7-7.6,3.8-11.4
		c10-34.3,7.9-67.5-5.8-91.2C353-17.2,334.6-30,309.5-36.1l0,0l0,0l0,0l0,0c-25.1,6-43.5,18.9-54.7,38.3
		C241.1,25.9,239,59.1,249,93.4c1.1,3.8,2.4,7.5,3.8,11.4c-8.5,0.5-14.7-3.2-17-4.9c3.3-13.7-18.2-66.6-22.1-76L236-25.4l-6.2,5
		c-9.6,7.6-26.9,41.5-27.6,42.9l-0.1,0.3v0.3c-4.9,26.4,15.9,79,18.7,85.9c0,0.2-0.1,0.4-0.2,0.6c-0.3,2.5,1.3,5,5,8.1
		c10.4,8.6,41.9,22.5,53.3,27.4c-5.4,3.7-10,8.5-13.7,14.3c-0.1,0.2-0.2,0.4-0.3,0.6c-4.8,2.9-10.2,4.9-13.4,5.9
		c-0.2-0.9-0.3-1.8-0.5-2.7c-0.8-4.6-1.5-8.9-3.2-13.2c-11.6-29.3-34.9-34.5-40.2-35.4c-6.4-7.1-12.7-11.8-18.8-13.9
		c-4.2-1.5-15.7-3.9-26.8-3.9c-8.5,0-16.8,1.5-21.6,5.9c-2.7,2.5-5.4,7.1-3.3,15c0.2,0.8,0.5,1.7,0.7,2.5c-1-0.3-2.1-0.6-3.3-0.8
		c-4.8-0.7-9.1,0.6-11.7,3.4c-4,4.4-13.1,7.9-13.3,8c-13.4,5.8-14.7,14.6-14.6,18.4C79,160,80.2,170.9,80.6,172.9z M288.9,289
		l0.7,0.2c-3.1-0.5-6.5-1.9-9-4.4c-2.9-3-4.2-7.1-3.8-12.9c4.5,2.9,13.7,9.1,18,17.1H288.9z M339.4,284.7c-2.5,2.5-5.8,4-9,4.5
		l0.7-0.2h-6c4.4-8,13.6-14.2,18-17.1C343.6,277.6,342.4,281.7,339.4,284.7z M485.8,124.7c3-0.4,5.7,0.2,7.1,1.8
		c4.9,5.3,14.7,9.1,15.2,9.3c13,5.6,11.4,14,11.3,14.4L519,152l1.6,1c15.9,9.7,14,18.7,13.9,19l-0.1,0.5
		c-1.4,27.2-60.6,31-72.4,31.5c-15.2,0.6-61.9,5.9-80.2,12.2c-7.1,2.4-13,1.2-17.2-0.8c-0.9-0.4-1.7-0.8-2.5-1.3
		c-1-0.6-1.8-1.1-2.5-1.6c-1.2-0.9-1.8-1.6-1.8-1.6s-0.5-0.4-1.1-1l0,0c-0.1-0.5-0.3-1-0.5-1.5c0.7-0.3,1.7-1,3.8-2.2l6.2-3.8
		c18.8-11.5,57.7-35.6,72.9-40.1c18.9-5.6,31.8-16.6,39.4-33.5C479.4,126.7,482.6,125.2,485.8,124.7z M360.3,199
		c0.8-1.1,1.5-2.2,2.1-3.2c0.8-1.3,1.6-2.6,2.3-3.8v-0.1c6.3-11.1,7.7-20,9-27.6c0.8-4.5,1.4-8.4,2.9-12.2
		c11.7-29.5,36.7-32.3,37-32.3l1-0.1l0.7-0.8c5.9-6.7,11.8-11.3,17.2-13.1c7.5-2.6,34.6-7.1,43.1,0.9c2.4,2.3,3,5.5,1.8,9.8
		l-3.3,8.8c-7,16.2-19,26.7-36.8,32c-15.3,4.5-52.7,27.4-72.3,39.5c0,0-0.1,0-0.1,0.1c-0.6,0.4-1.2,0.8-1.8,1.1c-1,0.6-2,1.2-3,1.8
		c-0.1,0.1-0.2,0.1-0.3,0.2c-0.3,0.2-0.5,0.3-0.8,0.5c0.3-0.4,0.5-0.7,0.8-1.1C360.1,199.2,360.2,199.1,360.3,199z M253.4,89.2
		c-4.7-17.3-6-34.1-4.4-49.4c5.5-3.3,26-13.8,61.6-13.9c33.1,0.1,53.7,9.8,60.4,13.5c1.7,15.2,0.4,32-4.2,49.3
		c-6.3-7.1-23.2-21.8-55.2-22.1l0,0c-1,0-0.8,0-1,0c-0.2,0,0,0-1,0l0,0C275.7,66.8,259,82.4,253.4,89.2z M267.2,123.1
		c3.1-6,16-22.7,43.4-23.1c25.4,0.3,38.8,15.6,42.6,22.4c-0.1,0.2-0.2,0.5-0.4,0.7c-4.3,7.6-11,14-19.3,18.2
		c-6.4-2.9-13.9-4.4-21.9-4.7v-0.1c-1,0-1.1,0-1.5,0s-1.5,0-1.5,0v0.1c-9,0.2-15.6,1.8-22,4.7C278.4,137,271.5,130.6,267.2,123.1z
		 M262.7,179.5c0.1-0.5,0.2-0.9,0.4-1.4c4.8-4.4,20.5-16.6,47.6-16.8c24.6,0.2,40.2,11,46.1,16c0.2,0.7,0.4,1.5,0.6,2.2
		c0.9,3.5,1.6,7.3,2,11.3c-2.2,3.7-5,7.7-8.6,12c-0.1,0-0.2,0-0.3,0c-2.5,0-4.8,2.2-6.9,6.6c-3.6,7.4-4,12.4-1.3,15
		c3,2.9,8.7,1.3,10.8,0.2c2.4-1.3,3.6-3.9,4.1-7c0.5,0.4,1.1,0.8,1.7,1.2c-0.8,5.9-2,11.8-3.5,17.5c-0.3,1-0.6,2.1-0.9,3.1
		c-12.7,13.1-39.9,14.3-44,14.4c-5.1-0.1-33.1-1.3-45.3-15.4c-0.2-0.7-0.4-1.4-0.6-2.1c-1.5-5.8-2.7-11.6-3.5-17.5
		c0.6-0.4,1.2-0.8,1.7-1.2c0.4,3,1.7,5.7,4.1,7c2.1,1.1,7.8,2.7,10.8-0.2c2.7-2.6,2.2-7.6-1.3-15c-2.1-4.4-4.4-6.6-6.9-6.6
		c-0.1,0-0.2,0-0.3,0c-3.6-4.3-6.4-8.3-8.6-12C261.1,186.9,261.8,183,262.7,179.5z M144.4,106.7c8.5-8,35.7-3.4,43.1-0.9
		c5.4,1.8,11.4,6.4,17.2,13.1l0.7,0.8l1,0.1c0.2,0,25.3,2.8,37,32.3c1.5,3.8,2.1,7.7,2.9,12.2c1.3,7.6,2.7,16.5,9,27.6v0.1
		c0.7,1.2,1.5,2.5,2.3,3.8c0.7,1.1,1.4,2.1,2.1,3.2c0.1,0.1,0.2,0.3,0.3,0.4c0.2,0.4,0.5,0.7,0.8,1.1c-0.2-0.1-0.5-0.3-0.8-0.5
		c-0.1-0.1-0.2-0.1-0.3-0.2c-0.9-0.6-1.9-1.2-3-1.8c-0.6-0.4-1.2-0.8-1.8-1.1c0,0-0.1,0-0.1-0.1c-19.6-12.1-56.9-34.9-72.3-39.5
		c-17.8-5.3-29.9-15.8-36.8-32c-1.1-2.8-2.4-5.6-3.3-8.8C141.3,112.2,141.9,109,144.4,106.7z M99.5,152.9l1.6-1l-0.4-1.8
		c-0.1-0.4-1.7-8.8,11.3-14.4c0.4-0.2,10.3-3.9,15.2-9.3c1.4-1.5,4.1-2.2,7.1-1.8c3.3,0.5,6.4,2,7.4,4c7.7,16.9,20.6,27.9,39.4,33.5
		c15.2,4.5,54.2,28.6,73,40.1l5.8,3.7c0.1,0,0.2,0.1,0.2,0.1c2,1.2,3.1,1.9,3.8,2.2c-0.2,0.5-0.3,1-0.5,1.5l0,0c-0.5,0.7-1,1-1,1
		s-0.6,0.7-1.8,1.6c-0.7,0.5-1.5,1.1-2.5,1.6c-0.7,0.4-1.6,0.9-2.5,1.3c-4.2,1.9-10.2,3.2-17.2,0.7c-18.3-6.3-65-11.6-80.2-12.2
		c-11.8-0.5-71-4.2-72.4-31.5l-0.1-0.5C85.6,171.6,83.6,162.6,99.5,152.9z"/>
</g>
<g id="stinger">
</g>
<g id="outlines">
</g>
</svg>
