<?xml version="1.0" encoding="utf-8"?>
<!-- Generator: Adobe Illustrator 19.1.0, SVG Export Plug-In . SVG Version: 6.00 Build 0)  -->
<svg version="1.1" xmlns="http://www.w3.org/2000/svg" xmlns:xlink="http://www.w3.org/1999/xlink" x="0px" y="0px"
	 viewBox="0 0 459.3 404" style="enable-background:new 0 0 459.3 404;" xml:space="preserve">
<style type="text/css">
	.st0{display:none;}
	.st1{display:inline;}
	.st2{fill:#37424A;}
</style>
<g id="bg" class="st0">
</g>
<g id="original">
</g>
<g id="stinger">
	<path class="st2" d="M459.1,163.5c-1.9-30.7-59.7-35.4-77.4-36.1c-9.7-0.4-30.8-2.5-49.6-5.5c0.3-9.2,0.9-26.4,1.2-28.7
		c0.3-2.5-0.5-6.9-2.7-11.5c3.6-3.7,5.1-7.2,4.4-10.6c-1.1-5.5-7.7-7.9-7.9-8l-5.9-2.1l3.6,5.1c1.3,1.8,1.8,3.4,1.4,4.6
		c-0.4,1.3-1.7,2.1-2.5,2.6c-0.4-0.1-0.8,0-1.2,0.1c-1.1,0.4-4,1.4-6.4,27l-4.9,17.7c-3.2-0.8-6.1-1.6-8.4-2.4
		c-8.1-2.9-14.7-2.2-19.5-0.3c-0.8-5.5-2-11-3.4-16.4c-1.2-4.5-2.6-8.9-4.2-13.2c1.3-0.7,2.8-1.4,4.2-2.1c3-1.5,5.9-2.8,7.8-4.2
		c9.5-6.5,9.7-13.9,9.2-16.7c-0.2-1.4-0.6-2.7-1.2-3.8c0.9-3.4,0.6-6.2-0.9-8.1c-2.2-2.7-5.7-2.6-6.1-2.5l-5.7,0.4l4.8,3.2
		c0.8,0.5,1.3,1.1,1.4,1.8c0.1,0.6-0.1,1.3-0.3,1.9c-8.6-0.1-12.6,10.1-14.1,13.8c-0.8,1.9-2.1,4.5-3.2,6.7c-1.6-3.3-3.3-6.4-5-9.2
		l-0.1-0.1c0.8-7.6-0.7-13.5-4.7-17.6c-5.9-5.9-15-6-18.9-5.7l-0.3-0.2c-1.3-0.8-2.5-1.2-3.7-1.5c0.8-1.4,1.8-3.1,3.1-5.1
		c0.8-1.2,1.7-2.4,2.8-3.7c0.5-0.6,1-1.3,1.6-1.9c0.6-0.7,1.2-1.3,1.9-2c2.6-2.8,5.2-5.8,7.6-9.1c0.6-0.8,1.2-1.7,1.7-2.6
		c0.6-0.9,1-1.9,1.4-2.7c0.9-1.7,1.8-3.3,2.8-4.8c2-3,4.4-5.4,6.8-6.8c2.4-1.4,4.8-1.8,6.4-1.6c0.8,0.1,1.5,0.2,1.9,0.3
		c0.4,0.1,0.7,0.2,0.7,0.2l0.4-1.2c0,0-0.2-0.1-0.7-0.2c-0.5-0.2-1.2-0.3-2.1-0.5c-1.8-0.3-4.6-0.1-7.4,1.4c-2.8,1.4-5.5,4-7.8,7
		c-1.2,1.5-2.2,3.2-3.3,4.9c-0.5,0.9-0.9,1.7-1.5,2.4c-0.5,0.7-1.1,1.5-1.7,2.2c-2.4,3-5.2,5.8-7.8,8.2c-0.7,0.6-1.3,1.2-2,1.8
		c-0.7,0.6-1.3,1.3-1.9,1.9c-1.2,1.3-2.3,2.6-3.2,3.8c-1.9,2.4-3.3,4.6-4.2,6.1c-0.2,0.3-0.3,0.6-0.5,0.9c-0.8-0.1-1.6-0.2-2.6-0.2
		v-0.1c0,0-1.1,0-1.5,0c-0.4,0-0.5,0-1.5,0v0.1c-1,0-1.6,0.1-2.5,0.2c-0.2-0.3-0.2-0.6-0.4-0.9c-0.9-1.5-2.3-3.7-4.2-6.1
		c-1-1.2-2-2.5-3.2-3.8c-0.6-0.6-1.2-1.3-1.9-1.9c-0.7-0.6-1.3-1.2-2-1.8c-2.7-2.5-5.4-5.3-7.8-8.2c-0.6-0.7-1.2-1.5-1.7-2.2
		c-0.5-0.7-0.9-1.6-1.5-2.4c-1-1.7-2.1-3.4-3.3-4.9c-2.3-3-5-5.5-7.8-7c-2.8-1.5-5.6-1.7-7.4-1.4c-0.9,0.1-1.6,0.3-2.1,0.5
		c-0.5,0.1-0.7,0.2-0.7,0.2l0.4,1.2c0,0,0.2-0.1,0.7-0.2c0.4-0.1,1.1-0.2,1.9-0.3c1.6-0.1,4,0.2,6.4,1.6c2.4,1.4,4.8,3.8,6.8,6.8
		c1,1.5,1.9,3.1,2.8,4.8c0.4,0.8,0.8,1.8,1.4,2.7c0.5,0.9,1.1,1.7,1.7,2.6c2.4,3.3,5,6.3,7.6,9.1c0.6,0.7,1.3,1.3,1.9,2
		c0.6,0.6,1.1,1.2,1.6,1.9c1,1.2,1.9,2.5,2.7,3.7c1.3,1.9,2.3,3.7,3.1,5.1c-1.2,0.3-2.5,0.7-3.8,1.5l-0.3,0.2
		c-3.9-0.3-13-0.1-18.8,5.7c-4,4.1-5.6,10-4.7,17.6l-0.1,0.1c-1.8,2.8-3.4,5.9-5,9.2c-1.2-2.2-2.5-4.8-3.2-6.8
		c-1.5-3.7-5.5-13.8-14.1-13.7c-0.2-0.5-0.4-1.2-0.3-1.9c0.1-0.7,0.6-1.3,1.4-1.8l4.8-3.2l-5.7-0.4c-0.4,0-3.9-0.2-6.1,2.5
		c-1.5,1.9-1.8,4.6-0.9,8.1c-0.6,1.1-1,2.4-1.2,3.8c-0.4,2.8-0.3,10.2,9.2,16.7c1.9,1.3,4.8,2.7,7.8,4.2c1.4,0.7,2.9,1.4,4.2,2.1
		c-1.6,4.3-3.1,8.7-4.2,13.2c-1.5,5.4-2.6,10.9-3.4,16.4c-4.8-1.8-11.3-2.6-19.5,0.3c-2.3,0.8-5.2,1.6-8.4,2.4l-4.9-17.7
		c-2.3-25.6-5.3-26.6-6.4-27c-0.4-0.1-0.8-0.2-1.2-0.1c-0.7-0.4-2.1-1.2-2.5-2.5c-0.4-1.2,0.1-2.8,1.4-4.6l3.6-5.1l-5.9,2.1
		c-0.3,0.1-6.8,2.5-7.9,8c-0.7,3.3,0.8,6.9,4.4,10.6c-2.2,4.6-3,9.1-2.7,11.5c0.3,2.3,0.9,19.5,1.2,28.7c-18.8,3-39.9,5.1-49.6,5.5
		c-17.7,0.7-75.5,5.4-77.4,36.1c-0.4,2.1-1.6,12.9,14.9,23.6c-0.1,3.9,1.2,12.6,14.6,18.4c0.2,0.1,9.3,3.5,13.3,8
		c2.6,2.8,6.9,4.1,11.7,3.4c1.2-0.2,2.2-0.4,3.3-0.8c-0.2,0.8-0.5,1.7-0.7,2.5c-2.1,7.8,0.6,12.5,3.3,15c4.8,4.5,13.1,5.9,21.6,5.9
		c11.1,0,22.5-2.5,26.8-3.9c6.1-2.1,12.5-6.7,18.8-13.9c5.3-0.8,28.6-6.1,40.2-35.4c1.7-4.3,2.4-8.6,3.2-13.2
		c0.1-0.9,0.3-1.8,0.5-2.7c3.2,1,8.6,3,13.4,5.9c0.1,0.2,0.2,0.4,0.3,0.6c3.7,5.9,8.2,10.7,13.7,14.3c-11.4,4.9-42.9,18.8-53.2,27.4
		c-3.7,3.1-5.3,5.6-5,8.1c0,0.2,0.1,0.4,0.2,0.6c-2.8,6.9-23.6,59.4-18.7,85.9l0,0.3l0.1,0.3c0.7,1.4,18.1,35.3,27.6,42.9l6.2,5
		l-22.3-49.3c3.9-9.4,25.4-62.3,22.1-76c2.3-1.7,8.4-5.4,17-4.9c-1.5,3.9-2.7,7.6-3.8,11.4c-10,34.3-7.9,67.5,5.8,91.2
		c7.8,13.5,19.2,23.8,33.8,30.9c6.6,24.5,18.5,36.9,19,37.5l1.7,1.8l1.8-1.7c8.8-8.4,16.4-30.8,18.4-37.1
		c15.1-7.1,26.8-17.6,34.7-31.3c13.7-23.7,15.8-56.9,5.8-91.2c-1.1-3.8-2.4-7.5-3.8-11.4c8.5-0.5,14.7,3.2,17,4.9
		c-3.3,13.7,18.2,66.6,22.1,76l-22.3,49.3l6.2-5c9.6-7.6,26.9-41.5,27.6-42.9l0.1-0.3l0-0.3c4.9-26.4-15.9-79-18.7-85.9
		c0-0.2,0.1-0.4,0.2-0.6c0.3-2.5-1.3-5-5-8.1c-10.4-8.6-41.9-22.5-53.3-27.4c5.4-3.7,10-8.5,13.7-14.3c0.1-0.2,0.2-0.4,0.3-0.6
		c4.8-2.9,10.2-4.9,13.4-5.9c0.2,0.9,0.3,1.8,0.5,2.7c0.8,4.6,1.5,8.9,3.2,13.2c11.6,29.3,34.9,34.5,40.2,35.4
		c6.4,7.1,12.7,11.8,18.8,13.9c4.2,1.5,15.7,3.9,26.8,3.9c8.5,0,16.8-1.5,21.6-5.9c2.7-2.5,5.4-7.1,3.3-15c-0.2-0.8-0.5-1.7-0.7-2.5
		c1,0.3,2.1,0.6,3.3,0.8c4.8,0.7,9.1-0.6,11.7-3.4c4-4.4,13.1-7.9,13.3-8c13.4-5.8,14.7-14.6,14.6-18.4
		C460.7,176.4,459.5,165.5,459.1,163.5z M250.8,47.4l-0.7-0.2c3.1,0.5,6.5,1.9,9,4.4c2.9,3,4.2,7.1,3.8,12.9
		c-4.5-2.9-13.7-9.1-18-17.1H250.8z M200.3,51.7c2.5-2.5,5.8-4,9-4.5l-0.7,0.2h6c-4.4,8-13.6,14.2-18,17.1
		C196.1,58.8,197.3,54.7,200.3,51.7z M53.9,211.7c-3,0.4-5.7-0.2-7.1-1.8c-4.9-5.3-14.7-9.1-15.2-9.3c-13-5.6-11.4-14-11.3-14.4
		l0.4-1.8l-1.6-1c-15.9-9.7-14-18.7-13.9-19l0.1-0.5c1.4-27.2,60.6-31,72.4-31.5c15.2-0.6,61.9-5.9,80.2-12.2
		c7.1-2.4,13-1.2,17.2,0.8c0.9,0.4,1.7,0.8,2.5,1.3c1,0.6,1.8,1.1,2.5,1.6c1.2,0.9,1.8,1.6,1.8,1.6c0,0,0.5,0.4,1.1,1c0,0,0,0,0,0
		c0.1,0.5,0.3,1,0.5,1.5c-0.7,0.3-1.7,1-3.8,2.2l-6.2,3.8c-18.8,11.5-57.7,35.6-72.9,40.1c-18.9,5.6-31.8,16.6-39.4,33.5
		C60.3,209.7,57.1,211.2,53.9,211.7z M179.4,137.4c-0.8,1.1-1.5,2.2-2.1,3.2c-0.8,1.3-1.6,2.6-2.3,3.8c0,0,0,0.1,0,0.1
		c-6.3,11.1-7.7,20-9,27.6c-0.8,4.5-1.4,8.4-2.9,12.2c-11.7,29.5-36.7,32.3-37,32.3l-1,0.1l-0.7,0.8c-5.9,6.7-11.8,11.3-17.2,13.1
		c-7.5,2.6-34.6,7.1-43.1-0.9c-2.4-2.3-3-5.5-1.8-9.8l3.3-8.8c7-16.2,19-26.7,36.8-32c15.3-4.5,52.7-27.4,72.3-39.5
		c0,0,0.1,0,0.1-0.1c0.6-0.4,1.2-0.8,1.8-1.1c1-0.6,2-1.2,3-1.8c0.1-0.1,0.2-0.1,0.3-0.2c0.3-0.2,0.5-0.3,0.8-0.5
		c-0.3,0.4-0.5,0.7-0.8,1.1C179.6,137.2,179.5,137.3,179.4,137.4z M229.6,396.8c-3.2-4-10.1-13.9-14.9-29.3
		c4.7,1.9,9.7,3.5,14.9,4.7l0,0c0,0,0,0,0,0c0,0,0,0,0,0l0,0c4.9-1.2,9.4-2.6,13.8-4.3C240.8,375.7,235.5,389.6,229.6,396.8z
		 M286.3,247.2c4.7,17.3,6,34.1,4.4,49.4c-5.5,3.3-26,13.8-61.6,13.9c-33.1-0.1-53.7-9.8-60.4-13.5c-1.7-15.2-0.4-32,4.2-49.3
		c6.3,7.1,23.2,21.8,55.2,22.1v0c1,0,0.8,0,1,0c0.2,0,0,0,1,0v0C264,269.6,280.7,254,286.3,247.2z M272.5,213.3
		c-3.1,6-16,22.7-43.4,23.1c-25.4-0.3-38.8-15.6-42.6-22.4c0.1-0.2,0.2-0.5,0.4-0.7c4.3-7.6,11-14,19.3-18.2
		c6.4,2.9,13.9,4.4,21.9,4.7v0.1c1,0,1.1,0,1.5,0s1.5,0,1.5,0v-0.1c9-0.2,15.6-1.8,22-4.7C261.3,199.4,268.2,205.8,272.5,213.3z
		 M277,156.9c-0.1,0.5-0.2,0.9-0.4,1.4c-4.8,4.4-20.5,16.6-47.6,16.8c-24.6-0.2-40.2-11-46.1-16c-0.2-0.7-0.4-1.5-0.6-2.2
		c-0.9-3.5-1.6-7.3-2-11.3c2.2-3.7,5-7.7,8.6-12c0.1,0,0.2,0,0.3,0c2.5,0,4.8-2.2,6.9-6.6c3.6-7.4,4-12.4,1.3-15
		c-3-2.9-8.7-1.3-10.8-0.2c-2.4,1.3-3.6,3.9-4.1,7c-0.5-0.4-1.1-0.8-1.7-1.2c0.8-5.9,2-11.8,3.5-17.5c0.3-1,0.6-2.1,0.9-3.1
		c12.7-13.1,39.9-14.3,44-14.4c5.1,0.1,33.1,1.3,45.3,15.4c0.2,0.7,0.4,1.4,0.6,2.1c1.5,5.8,2.7,11.6,3.5,17.5
		c-0.6,0.4-1.2,0.8-1.7,1.2c-0.4-3-1.7-5.7-4.1-7c-2.1-1.1-7.8-2.7-10.8,0.2c-2.7,2.6-2.2,7.6,1.3,15c2.1,4.4,4.4,6.6,6.9,6.6
		c0.1,0,0.2,0,0.3,0c3.6,4.3,6.4,8.3,8.6,12C278.6,149.5,277.9,153.4,277,156.9z M395.3,229.7c-8.5,8-35.7,3.4-43.1,0.9
		c-5.4-1.8-11.4-6.4-17.2-13.1l-0.7-0.8l-1-0.1c-0.2,0-25.3-2.8-37-32.3c-1.5-3.8-2.1-7.7-2.9-12.2c-1.3-7.6-2.7-16.5-9-27.6
		c0,0,0-0.1,0-0.1c-0.7-1.2-1.5-2.5-2.3-3.8c-0.7-1.1-1.4-2.1-2.1-3.2c-0.1-0.1-0.2-0.3-0.3-0.4c-0.2-0.4-0.5-0.7-0.8-1.1
		c0.2,0.1,0.5,0.3,0.8,0.5c0.1,0.1,0.2,0.1,0.3,0.2c0.9,0.6,1.9,1.2,3,1.8c0.6,0.4,1.2,0.8,1.8,1.1c0,0,0.1,0,0.1,0.1
		c19.6,12.1,56.9,34.9,72.3,39.5c17.8,5.3,29.9,15.8,36.8,32c1.1,2.8,2.4,5.6,3.3,8.8C398.4,224.2,397.8,227.4,395.3,229.7z
		 M440.2,183.5l-1.6,1l0.4,1.8c0.1,0.4,1.7,8.8-11.3,14.4c-0.4,0.2-10.3,3.9-15.2,9.3c-1.4,1.5-4.1,2.2-7.1,1.8
		c-3.3-0.5-6.4-2-7.4-4c-7.7-16.9-20.6-27.9-39.4-33.5c-15.2-4.5-54.2-28.6-73-40.1l-5.8-3.7c-0.1,0-0.2-0.1-0.2-0.1
		c-2-1.2-3.1-1.9-3.8-2.2c0.2-0.5,0.3-1,0.5-1.5c0,0,0,0,0,0c0.5-0.7,1-1,1-1c0,0,0.6-0.7,1.8-1.6c0.7-0.5,1.5-1.1,2.5-1.6
		c0.7-0.4,1.6-0.9,2.5-1.3c4.2-1.9,10.2-3.2,17.2-0.7c18.3,6.3,65,11.6,80.2,12.2c11.8,0.5,71,4.2,72.4,31.5l0.1,0.5
		C454.1,164.8,456.1,173.8,440.2,183.5z"/>
</g>
<g id="outlines">
</g>
</svg>
