<?xml version="1.0" encoding="utf-8"?>
<!-- Generator: Adobe Illustrator 19.1.0, SVG Export Plug-In . SVG Version: 6.00 Build 0)  -->
<svg version="1.1" xmlns="http://www.w3.org/2000/svg" xmlns:xlink="http://www.w3.org/1999/xlink" x="0px" y="0px"
	 viewBox="0 0 313.1 469.9" style="enable-background:new 0 0 313.1 469.9;" xml:space="preserve">
<style type="text/css">
	.st0{display:none;}
	.st1{display:inline;}
	.st2{fill:#37424A;}
	.st3{fill:none;stroke:#37424A;stroke-width:24;stroke-miterlimit:10;}
	.st4{fill:none;stroke:#FFFFFF;stroke-width:4;stroke-linecap:round;stroke-miterlimit:10;}
</style>
<g id="bg" class="st0">
</g>
<g id="original">
</g>
<g id="stinger">
</g>
<g id="outlines">
	<path class="st2" d="M265.6,69h-82L143.8,0H48.7L1.1,82.7l40.6,70.6L1.1,223.9l47.6,82.5c63.2,26.7,36.2,102.8,30,137.6
		c-2.3,13,4.5,26,16.9,26s18.1-15.5,15.7-26.4C82.5,316.2,143.6,306,143.6,306h0.2l41.5-72h80.2l47.5-82.5L265.6,69z M28.9,82.5
		L62.6,24H130l33.2,57.6L128.9,141H62.6L28.9,82.5z M130,282.4c-22.7-7.9-52.1-6.3-67.4,0l-33.7-58.7L62.6,165H130l33.7,58.7
		L130,282.4z M251.7,210h-67.4l-33.2-57.6L185.3,93h66.4l33.7,58.5L251.7,210z"/>
</g>
</svg>
