<svg width="189" height="212" viewBox="0 0 189 212" fill="none" xmlns="http://www.w3.org/2000/svg">
<path fill-rule="evenodd" clip-rule="evenodd" d="M97.9012 0.00271361C142.723 0.37699 173.164 41.5385 185.425 84.8512C196.199 122.908 182.049 162.475 150.663 186.376C116.99 212.016 71.0989 222.691 36.6116 198.168C1.00501 172.848 -7.16261 125.203 5.78145 83.3511C19.3377 39.5203 52.2156 -0.378774 97.9012 0.00271361Z" fill="#E3E448"/>
<path d="M28 34C28 27.2991 30.0751 21.1383 32.6107 14.8949C33.5381 12.6114 34.6999 7.75772 36.5042 11.1908C38.3017 14.611 41.5725 17.4083 43.4715 20.8409C44.5355 22.764 46.3095 26.0411 48.2872 26.9818" stroke="#2F2F2F" stroke-width="3" stroke-linecap="round"/>
<path d="M104 22.4039C107.503 16.0992 113.412 11.3424 118.429 6.32586C122.392 2.36289 120.93 8.30269 121.498 10.8607C122.837 16.8877 123.788 22.7983 123.788 29" stroke="#2F2F2F" stroke-width="3" stroke-linecap="round"/>
<path d="M66 69.2386C66.3178 72.0993 72.9219 75.5034 75.359 76.896C77.6627 78.2124 78.8839 81.1501 81.3147 82.3655" stroke="#2F2F2F" stroke-width="3" stroke-linecap="round"/>
<path d="M67.2034 82.2208C69.9535 77.3317 78.1606 69.8171 83.612 68" stroke="#2F2F2F" stroke-width="3" stroke-linecap="round"/>
<circle cx="48" cy="64" r="4" fill="#2F2F2F"/>
<circle cx="99" cy="64" r="4" fill="#2F2F2F"/>
</svg>
