<?xml version="1.0" encoding="utf-8"?>
<!-- Generator: Adobe Illustrator 16.0.0, SVG Export Plug-In . SVG Version: 6.00 Build 0)  -->
<!DOCTYPE svg PUBLIC "-//W3C//DTD SVG 1.1//EN" "http://www.w3.org/Graphics/SVG/1.1/DTD/svg11.dtd">
<svg version="1.1" id="Layer_1" xmlns="http://www.w3.org/2000/svg" xmlns:xlink="http://www.w3.org/1999/xlink" x="0px" y="0px"
	 width="91.5px" height="127.5px" viewBox="0 0 91.5 127.5" enable-background="new 0 0 91.5 127.5" xml:space="preserve">
<g>
	<path fill="#9E9EA0" d="M80.07,60.508c0,0.48-0.281,0.921-0.84,1.32c-2.562,0.401-6.36,0.6-11.4,0.6c-2.481,0-5.381,1.68-8.7,5.04
		c-3.321,3.36-4.98,6.281-4.98,8.76c0,2.321,0.57,3.48,1.71,3.48c4.562-3.36,8.064-5.04,10.509-5.04c0.733,0,1.101,0.201,1.101,0.6
		c0,0.48-0.188,1.28-0.562,2.4c-0.375,1.121-0.561,2.081-0.561,2.88c0,0.081-0.707,0.701-2.121,1.86
		c-1.414,1.161-2.286,2.76-2.617,4.8c-0.334,2.04-0.499,4.661-0.499,7.86c0,5.679,1.12,10.119,3.36,13.32
		c2.4,3.439,6.28,5.88,11.64,7.32c-0.24,0.48-0.6,1.159-1.08,2.04c-2.24-0.96-4.721-2.682-7.44-5.16
		c-2.241-2.081-4.481-4.161-6.72-6.24c-0.642-0.561-3.401-2.121-8.28-4.68c-4.56-2.321-6.881-3.64-6.96-3.96
		c1.68-1.279,2.52-2.28,2.52-3c0-1.359-0.72-2.04-2.16-2.04c-1.041,0-2.621,0.72-4.74,2.16c-2.121,1.44-3.621,2.16-4.5,2.16
		c-0.881,0-1.281-0.679-1.2-2.04c-1.361-0.799-3.041-1.519-5.04-2.16l-0.48-0.96c0-1.44,2.88-2.859,8.64-4.26
		c5.76-1.399,8.64-3.18,8.64-5.34c0-0.559-0.12-1.12-0.36-1.68c-1.76-5.04-5.121-8.439-10.08-10.2
		c-2.241-0.798-6.48-1.398-12.72-1.8c-4.56-0.319-7.121-1.279-7.68-2.88c0-0.96,1.219-1.939,3.66-2.94c2.439-1,3.66-1.78,3.66-2.34
		c0-0.799-1.32-2.1-3.96-3.9c-2.64-1.8-3.96-2.779-3.96-2.94c0-0.24,0.259-0.58,0.78-1.02c0.52-0.439,0.78-0.9,0.78-1.38
		c-1.361-2.08-2.04-3.559-2.04-4.44c0-1.519,0.6-2.28,1.8-2.28c0.799,0,1.999,0.6,3.6,1.8c1.92,1.361,3.079,2.121,3.48,2.28
		l0.12-0.12l0.96,0.84c0.399-0.079,0.858-0.379,1.38-0.9c0.52-0.519,0.979-0.78,1.38-0.78c1.12,0,3,1.961,5.64,5.88
		c2.64,3.921,4.92,5.88,6.84,5.88c0.96,0,1.44-0.96,1.44-2.88c0-4.639-1.08-8.839-3.24-12.6c-1.281-2.239-3.281-4.8-6-7.68
		c-2.082-2.16-3.12-3.6-3.12-4.32c0-0.72,0.559-1.159,1.68-1.32c1.119-0.159,1.68-0.438,1.68-0.84c0-1.12-0.341-2.68-1.02-4.68
		c-0.681-1.999-1.02-3.52-1.02-4.56c0-1.599,0.879-2.4,2.64-2.4c1.839,0,3.759,1.94,5.76,5.82c1.999,3.881,3.639,5.82,4.92,5.82
		c0.799-1.359,1.26-4.08,1.38-8.16c0.12-4.08,0.699-6.679,1.74-7.8c0.318,0.081,0.858,0.621,1.62,1.62
		c0.759,1.001,1.339,1.5,1.74,1.5c0.48,0,1.719-1.039,3.72-3.12c0.72,0,1.44,0.469,2.16,1.406c0.72,0.937,1.12,1.815,1.2,2.63
		c-1.361,3.424-2.04,6.075-2.04,7.95l0.6,0.733c0.559,0,1.999-0.979,4.32-2.94c2.319-1.959,4.119-2.94,5.4-2.94
		c0.399,0,0.84,0.161,1.32,0.48v0.48c0,1.121-0.641,2.681-1.92,4.68c-1.28,2-1.92,3.48-1.92,4.44c0,0.72,0.439,1.34,1.32,1.86
		c0.879,0.521,1.32,0.941,1.32,1.26c0,0.561-1.241,1.841-3.72,3.84c-3.041,2.48-5.28,4.641-6.72,6.48c-2.4,3.12-3.6,6.321-3.6,9.6
		c0,0.641,0.52,0.96,1.56,0.96c3.679,0,9.12-5.359,16.32-16.08l0.48-0.36c0.559,1.121,1.56,1.68,3,1.68c0.72,0,1.719-0.259,3-0.78
		c1.279-0.52,2.2-0.819,2.76-0.9l0.6,0.6c0,0.48-0.32,1.4-0.96,2.76c-0.641,1.361-0.96,2.48-0.96,3.36
		c0,0.321,0.139,0.801,0.42,1.44c0.28,0.642,0.42,1.122,0.42,1.44c0,1.041-0.881,2.021-2.64,2.94c-1.761,0.92-2.64,1.74-2.64,2.46
		c0,1.041,1.08,2.34,3.24,3.9C78.99,58.648,80.07,59.789,80.07,60.508z"/>
</g>
</svg>
